<?xml version="1.0" encoding="UTF-8"?>
<svg id="Capa_2" data-name="Capa 2" xmlns="http://www.w3.org/2000/svg" xmlns:xlink="http://www.w3.org/1999/xlink" viewBox="0 0 512 512">
  <defs>
    <style>
      .cls-1 {
        fill: #1e3a8a;
      }

      .cls-2 {
        fill: #fff;
      }

      .cls-3 {
        fill: none;
      }

      .cls-4 {
        fill: url(#Degradado_sin_nombre_112);
      }
    </style>
    <radialGradient id="Degradado_sin_nombre_112" data-name="Degradado sin nombre 112" cx="256" cy="258" fx="256" fy="258" r="366.19" gradientTransform="translate(0 514) scale(1 -1)" gradientUnits="userSpaceOnUse">
      <stop offset=".17" stop-color="#1e3a8a"/>
      <stop offset=".34" stop-color="#1d3886"/>
      <stop offset=".49" stop-color="#1c357b"/>
      <stop offset=".65" stop-color="#1a2f68"/>
      <stop offset=".79" stop-color="#16274e"/>
      <stop offset=".94" stop-color="#121d2c"/>
      <stop offset="1" stop-color="#11181c"/>
    </radialGradient>
  </defs>
  <g id="Capa_1-2" data-name="Capa 1">
    <rect class="cls-4" width="512" height="512" rx="120" ry="120"/>
    <g>
      <path class="cls-3" d="M418.82,200.96l-18.14,72.58c-7.12,1.28-13.07,5.97-16.09,12.31h-175.7c-2.73-5.74-7.85-10.12-14.07-11.85l-13.42-89.51-.07-.52h224.52c.05.18.1.35.14.52,2.18,6.9,6.8,12.73,12.83,16.48Z"/>
      <circle class="cls-2" cx="236.82" cy="391.24" r="38.36"/>
      <circle class="cls-1" cx="236.82" cy="391.24" r="16.78"/>
      <circle class="cls-2" cx="236.82" cy="391.24" r="8.39"/>
      <circle class="cls-2" cx="368.67" cy="391.24" r="38.36"/>
      <circle class="cls-1" cx="368.67" cy="391.24" r="16.78"/>
      <circle class="cls-2" cx="368.67" cy="391.24" r="8.39"/>
      <path class="cls-2" d="M434.6,145.52c-13.21,0-24.44,8.58-28.42,20.46h-235.28c-2.61,0-5.11,1.14-6.81,3.13-.36.41-.67.85-.95,1.31l-10.52-46.06c-1.25-5.45-6.1-9.31-11.69-9.31h-41.37c-4.55-8.93-13.86-15.07-24.56-15.07-15.2,0-27.57,12.37-27.57,27.57s12.37,27.57,27.57,27.57c11.11,0,20.7-6.6,25.06-16.1h31.31l35.38,154.8c-.05.5-.06,1.02-.06,1.53,0,3.98,1.05,7.72,2.91,10.96l7.58,33.15c1.25,5.45,6.1,9.31,11.69,9.31h215.76c6.62,0,11.99-5.37,11.99-11.99s-5.37-11.99-11.99-11.99h-206.2l-1.98-8.62c5.84-2.12,10.54-6.64,12.91-12.36h174.79c3.33,8.04,11.26,13.7,20.48,13.7,12.23,0,22.17-9.95,22.17-22.17,0-7.13-3.39-13.5-8.64-17.55l18.09-72.4c15.76-.85,28.31-13.94,28.31-29.92s-13.44-29.97-29.97-29.97ZM75.01,147.92c-11.23,0-20.38-9.15-20.38-20.38s9.15-20.38,20.38-20.38,20.38,9.15,20.38,20.38-9.15,20.38-20.38,20.38ZM188.88,311.53c-8.92,0-16.18-7.26-16.18-16.18s7.26-16.18,16.18-16.18,16.18,7.26,16.18,16.18-7.26,16.18-16.18,16.18ZM420.81,295.35c0,8.92-7.26,16.18-16.18,16.18s-16.18-7.26-16.18-16.18c0-3.55,1.15-6.84,3.1-9.51,1.86-2.57,4.46-4.55,7.47-5.68l.14-.05c1.71-.61,3.55-.95,5.47-.95,8.92,0,16.18,7.26,16.18,16.18ZM400.82,273.51s-.1.01-.13.02c-7.12,1.28-13.07,5.97-16.09,12.31h-175.7c-2.73-5.74-7.85-10.12-14.07-11.85l-13.42-89.51-.07-.52h224.52c.05.18.1.35.14.52,2.18,6.9,6.8,12.73,12.83,16.48h.01s.06.05.1.07l-18.11,72.48ZM420.69,193.5c-3.04-2.35-5.48-5.45-7.01-9.03-.08-.17-.16-.34-.22-.52-1.07-2.63-1.64-5.48-1.64-8.47,0-12.56,10.21-22.77,22.77-22.77s22.77,10.21,22.77,22.77-10.21,22.77-22.77,22.77c-5.19,0-9.97-1.74-13.8-4.67"/>
      <path class="cls-2" d="M418.93,201.03l-18.11,72.48s-.1.01-.13.02l18.14-72.58h.01s.06.05.1.07Z"/>
    </g>
    <path class="cls-2" d="M143.14,367.06l-3.24,18.17h-21.99l-11.22,63.76h-22.68l11.11-63.76h-21.76l3.12-18.17h66.65Z"/>
  </g>
</svg>